<svg xmlns="http://www.w3.org/2000/svg" width="240" height="240" fill="none">
    <path fill="url(#paint0_linear)" fill-rule="evenodd" d="M155.008 5.963C156.952 8.376 157.943 11.633 159.925 18.144L203.234 160.414C186.966 151.973 169.506 146.061 151.456 142.884L123.258 47.594C123.033 46.8338 122.569 46.1667 121.933 45.6926C121.298 45.2186 120.526 44.963 119.733 44.9641C118.941 44.9652 118.169 45.223 117.535 45.6989C116.901 46.1748 116.439 46.8431 116.216 47.604L88.359 142.836C70.2276 145.998 52.6875 151.919 36.349 160.393L79.869 18.112C81.859 11.61 82.852 8.36 84.796 5.952C86.5121 3.82514 88.7444 2.17331 91.28 1.154C94.152 2.38419e-07 97.551 0 104.35 0H135.435C142.242 0 145.646 5.96046e-07 148.521 1.157C151.059 2.17831 153.292 3.83296 155.008 5.963V5.963Z" clip-rule="evenodd"/>
    <path fill="#FF5D01" fill-rule="evenodd" d="M160.19 167.439C153.051 173.544 138.8 177.707 122.386 177.707C102.239 177.707 85.353 171.435 80.873 163C79.271 167.835 78.912 173.367 78.912 176.902C78.912 176.902 77.856 194.257 89.927 206.328C89.927 200.06 95.008 194.979 101.277 194.979C112.019 194.979 112.007 204.352 111.997 211.956V212.635C111.997 224.177 119.051 234.071 129.083 238.241C127.539 235.063 126.739 231.574 126.744 228.041C126.744 217.033 133.207 212.934 140.718 208.171C146.694 204.381 153.334 200.17 157.91 191.722C160.374 187.171 161.661 182.077 161.653 176.902C161.653 173.603 161.14 170.423 160.19 167.439Z" clip-rule="evenodd"/>
    <path fill="url(#paint1_linear)" fill-rule="evenodd" d="M160.19 167.439C153.051 173.544 138.8 177.707 122.386 177.707C102.239 177.707 85.353 171.435 80.873 163C79.271 167.835 78.912 173.367 78.912 176.902C78.912 176.902 77.856 194.257 89.927 206.328C89.927 200.06 95.008 194.979 101.277 194.979C112.019 194.979 112.007 204.352 111.997 211.956V212.635C111.997 224.177 119.051 234.071 129.083 238.241C127.539 235.063 126.739 231.574 126.744 228.041C126.744 217.033 133.207 212.934 140.718 208.171C146.694 204.381 153.334 200.17 157.91 191.722C160.374 187.171 161.661 182.077 161.653 176.902C161.653 173.603 161.14 170.423 160.19 167.439Z" clip-rule="evenodd"/>
    <defs>
        <linearGradient id="paint0_linear" x1="168.599" x2="119.791" y1="-7.543" y2="160.414" gradientUnits="userSpaceOnUse">
            <stop stop-color="white"/>
            <stop offset="1" stop-color="#F9FAFB"/>
        </linearGradient>
        <linearGradient id="paint1_linear" x1="192.336" x2="150.065" y1="117.778" y2="206.27" gradientUnits="userSpaceOnUse">
            <stop stop-color="#FF1639"/>
            <stop offset="1" stop-color="#FF1639" stop-opacity="0"/>
        </linearGradient>
    </defs>
</svg>
