<?xml version="1.0" encoding="UTF-8"?>
<svg xmlns="http://www.w3.org/2000/svg" xmlns:xlink="http://www.w3.org/1999/xlink" width="320" height="320" version="1.1">
    <defs>
        <path id="path" d="M 180,140 C 200,80 180,30 120,30 C 60,30 10,80 10,150 C 10,220 60,270 120,270 Q 160,270 180,220 Q 200,230 215,215 Q 240,225 250,210 Q 270,215 280,200 Q 310,200 310,170 Q 310,140 180,140 Z"/>
        <clipPath id="clip">
            <use xlink:href="#path"/>
        </clipPath>
    </defs>
    <rect width="100" height="90" x="80" y="230" fill="#543729" rx="60" ry="30" transform="rotate(-15 80 230)"/>
    <g clip-path="url(#clip)">
        <rect width="320" height="320" x="0" y="0" fill="#ef5734"/>
        <polygon fill="#2baf2b" points="320,60 0,320 320,320"/>
        <path fill="#ffcc2f" d="M 0,320 H 220 L 170,200 Q 190,210 200,195 230,200 230,180 260,180 260,160 300,160 320,140 H 180 Q 140,210 80,190 50,210 0,180"/>
    </g>
    <g stroke="#543729" stroke-width="5">
        <use fill="none" stroke-width="20" xlink:href="#path"/>
        <path fill="#00acee" d="M 210,120 Q 180,60 270,40 260,50 260,70 260,110 210,120 Z"/>
        <path fill="#cecece" d="M 180,80 Q 160,100 180,120 L 205,110 203,100 Q 220,100 240,110 220,80 180,80 Z"/>
    </g>
    <circle cx="120" cy="90" r="20" fill="#543729" stroke="#ffcc2f" stroke-width="10"/>
    <ellipse cx="120" cy="85" fill="#ffffff" rx="8" ry="6"/>
</svg>
