<?xml version="1.0" encoding="UTF-8"?>
<svg xmlns="http://www.w3.org/2000/svg" xmlns:xlink="http://www.w3.org/1999/xlink" width="320" height="320" version="1.1">
    <g fill="#aa0000">
        <circle cx="160" cy="160" r="120"/>
        <rect id="rect" width="80" height="80" x="0" y="120"/>
        <use transform="rotate(60 160 160)" xlink:href="#rect"/>
        <use transform="rotate(120 160 160)" xlink:href="#rect"/>
        <use transform="rotate(180 160 160)" xlink:href="#rect"/>
        <use transform="rotate(240 160 160)" xlink:href="#rect"/>
        <use transform="rotate(300 160 160)" xlink:href="#rect"/>
    </g>
    <g fill="#ffffff" transform="translate(80 80) scale(0.5)">
        <path d="M 140,0 C 240,70 240,110 190,160 Q 120,230 150,310 L 180,320 Q 140,250 200,180 C 260,110 260,70 140,0"/>
        <path d="M 70,120 Q 120,130 140,180 Q 140,110 70,120"/>
        <path d="M 90,80 Q 150,90 160,140 Q 170,70 90,80"/>
        <path d="M 130,50 Q 180,60 190,100 Q 195,45 130,50"/>
    </g>
</svg>
