<?xml version="1.0" encoding="UTF-8"?>
<svg xmlns="http://www.w3.org/2000/svg" xmlns:xlink="http://www.w3.org/1999/xlink" width="320px" height="320px" viewBox="0 0 320 320" version="1.1" preserveAspectRatio="xMidYMid">
  <g>
    <path d="M129.349874 0C57.8576375 0 0 58.0177785 0 129.707892 0 192.826627 45.1207794 245.271944 104.664783 256.940442L104.664783 294.070564C182.077968 282.367134 250.622664 220.746047 255.737534 139.856792 258.816258 91.1682355 234.607453 41.4631042 193.777958 17.3273901 191.440301 15.9455215 189.065246 14.5736825 186.619281 13.3668438 184.126948 12.1371274 181.56764 10.9386202 178.966905 9.90136579 178.141355 9.55506989 177.332443 9.24092409 176.498397 8.91122922 174.226916 8.07039335 171.934909 7.12354791 169.58657 6.43588777 156.929424 2.25255359 143.399124 0 129.349874 0L129.349874 0 129.349874 0Z" fill="#00A818"/>
    <path d="M156.146426 47.9270677C151.712623 47.4712973 147.04383 49.0184337 143.77877 52.8878221 141.404181 56.0627047 139.920063 59.1383726 138.337002 62.3132553 133.58782 73.4253454 135.170882 85.3311559 142.294652 94.0620835 153.37607 91.6809213 162.775489 84.5870426 167.52467 73.4749528 169.107729 70.3000701 169.9982 66.2322513 169.9982 63.0573686 170.492908 54.624086 163.536101 48.6866829 156.146426 47.9270677L156.146426 47.9270677 156.146426 47.9270677ZM98.5131493 48.6711808C91.285799 49.3610361 84.414023 55.1201615 84.414023 63.0573686 84.414023 66.2322513 85.3044914 70.3000701 86.887553 73.4749528 91.6367345 84.5870426 101.77821 91.6809213 112.859631 94.0620835 119.191871 85.3311559 120.8244 73.4253454 116.075222 62.3132553 114.49216 59.1383726 113.008043 56.0130973 110.633454 53.6319351 107.36839 49.7625468 102.849562 48.2572681 98.5131493 48.6711808L98.5131493 48.6711808 98.5131493 48.6711808ZM59.6787097 86.8689897C47.1970382 87.5113479 41.6219327 103.239479 52.010764 111.424724 55.1768839 113.805886 58.2440628 115.54215 61.4101827 117.129592 72.4916005 121.891916 85.3044914 120.254867 94.8028544 113.905101 92.4282619 103.586732 84.3645526 94.1116912 73.2831314 89.3493667 69.3254807 87.7619256 66.1098904 86.8689897 62.1522397 86.8689897 61.2617713 86.7697746 60.51082 86.8261288 59.6787097 86.8689897L59.6787097 86.8689897 59.6787097 86.8689897ZM181.623797 134.988307C174.373255 134.848771 167.029962 136.972609 161.09349 140.941213 163.468079 151.259582 171.531791 160.734623 182.613209 165.496947 186.57086 167.084388 189.78645 167.977324 193.744101 167.977324 207.991639 168.771045 214.966998 151.110759 203.885577 143.173552 200.719457 140.79239 197.652278 139.304163 194.486158 137.716722 190.330629 135.930851 185.974116 135.072021 181.623797 134.988307L181.623797 134.988307 181.623797 134.988307ZM73.5304837 135.73242C69.1801608 135.816158 64.8236549 136.674964 60.6681224 138.460835 56.7104717 140.048277 53.6432928 141.784541 51.2687037 144.165703 40.9788133 152.896631 47.904702 169.515158 62.1522397 168.721437 66.1098904 168.721437 70.1170115 167.828501 73.2831314 166.24106 84.3645526 161.478736 92.2303801 152.003695 93.8134417 141.685326 87.8769657 137.716722 80.7810252 135.5929 73.5304837 135.73242L73.5304837 135.73242 73.5304837 135.73242ZM113.601688 160.040117C102.52027 162.421279 93.1208518 169.515158 88.3716703 180.627248 86.7886121 183.80213 85.8981403 187.621911 85.8981403 190.796794 85.1066095 204.290046 103.460213 211.532747 111.375511 201.214378 113.750103 198.039495 115.23422 194.963828 116.817279 191.788945 121.56646 181.470576 119.933928 169.564765 113.601688 160.040117L113.601688 160.040117 113.601688 160.040117ZM143.036709 160.78423C136.70447 169.515158 135.071941 181.420968 139.821119 192.533058 141.404181 195.707941 142.888298 198.833216 145.26289 201.214378 153.969719 210.739027 172.273848 203.694755 171.482321 191.788945 171.482321 188.614062 170.591849 184.546244 169.008788 181.371361 164.259609 170.259271 154.11813 163.165392 143.036709 160.78423L143.036709 160.78423 143.036709 160.78423Z" fill="#FFFFFF"/>
  </g>
</svg>
