<?xml version="1.0" encoding="UTF-8"?>
<svg xmlns="http://www.w3.org/2000/svg" width="320" height="320" version="1.1">
    <rect width="320" height="260" x="0" y="60" fill="#bf9f5f"/>
    <polygon fill="#dfbf7f" points="60,0 260,0 320,60 0,60"/>
    <polygon fill="#7f7f7f" points="140,0 180,0 200,60 120,60"/>
    <polygon fill="#3f3f3f" points="150,0 170,0 180,60 140,60"/>
    <polygon fill="#bfbfbf" points="160,0 170,0 172,10 148,10 146,25 174,25 177,40 143,40 140,60 160,60"/>
    <path fill="none" stroke="#d70751" stroke-linecap="round" stroke-width="15" d="M 160,300 Q 80,280 80,180 Q 80,100 160,100 Q 240,100 240,160 Q 240,220 180,220 Q 140,220 140,180 Q 140,140 170,140"/>
</svg>
