<?xml version="1.0" encoding="UTF-8"?>
<svg xmlns="http://www.w3.org/2000/svg" width="320" height="320" version="1.1">
    <defs>
        <mask id="mask">
            <rect width="320" height="320" x="0" y="0" fill="#fff"/>
            <polygon fill="#000" points="180,40 180,100 240,100"/>
            <g fill="none" stroke="#000" stroke-width="20">
                <path d="M 140,150 Q 110,150 110,170 V 190 Q 110,210 80,210 Q 110,210 110,230 V 250 Q 110,270 140,270"/>
                <path d="M 180,150 Q 210,150 210,170 V 190 Q 210,210 240,210 Q 210,210 210,230 V 250 Q 210,270 180,270"/>
            </g>
        </mask>
    </defs>
    <polygon fill="#f68712" points="40,0 40,320 280,320 280,100 180,0" mask="url(#mask)"/>
</svg>
