<?xml version="1.0" encoding="UTF-8"?>
<svg xmlns="http://www.w3.org/2000/svg" width="320" height="320" version="1.1">
    <defs>
        <mask id="mask">
            <rect width="320" height="320" x="0" y="0" fill="#fff"/>
            <rect width="320" height="320" x="0" y="0" fill="#000" mask="url(#mask-swift)" transform="translate(70 120) scale(0.5625)"/>
        </mask>
        <mask id="mask-wings">
            <rect width="480" height="480" x="-80" y="-80" fill="#fff"/>
            <ellipse cx="40" cy="120" fill="#000" rx="190" ry="145"/>
        </mask>
        <mask id="mask-swift">
            <g fill="#fff">
                <ellipse cx="120" cy="120" mask="url(#mask-wings)" rx="200" ry="140" transform="rotate(45 120 120)"/>
                <path d="M 280,220 Q 320,250 320,300 Q 280,255 230,280"/>
                <path d="M 180,220 Q 100,160 30,60 L 155,155 Q 120,120 70,50 Q 150,120 230,170"/>
            </g>
        </mask>
    </defs>
    <g fill="#f05239">
        <polygon points="180,0 280,100 240,100 180,40"/>
        <rect width="140" height="100" x="40" y="0"/>
        <rect width="240" height="220" x="40" y="100" mask="url(#mask)"/>
    </g>
</svg>
