<?xml version="1.0" encoding="UTF-8"?>
<svg xmlns="http://www.w3.org/2000/svg" width="320" height="320" version="1.1">
    <rect width="280" height="200" x="40" y="60" fill="#ef5734"/>
    <polyline fill="none" stroke="#ef5734" stroke-width="20" points="150,70 190,30 310,30 310,70"/>
    <g fill="#ffffff" transform="translate(40 60) scale(0.5) translate(120 40)">
        <path stroke="#ffffff" stroke-width="20" d="M 180,140 C 200,80 180,30 120,30 C 60,30 10,80 10,150 C 10,220 60,270 120,270 Q 160,270 180,220 Q 200,230 215,215 Q 240,225 250,210 Q 270,215 280,200 Q 310,200 310,170 Q 310,140 180,140 Z"/>
        <rect width="100" height="90" x="80" y="230" rx="60" ry="30" transform="rotate(-15 80 230)"/>
        <g stroke-width="5">
            <path d="M 210,120 Q 180,60 270,40 260,50 260,70 260,110 210,120 Z"/>
            <path d="M 180,80 Q 160,100 180,120 L 205,110 203,100 Q 220,100 240,110 220,80 180,80 Z"/>
        </g>
    </g>
</svg>
