<?xml version="1.0" encoding="UTF-8"?>
<svg xmlns="http://www.w3.org/2000/svg" width="320" height="320" version="1.1">
    <defs>
        <mask id="mask">
            <rect width="280" height="200" x="40" y="60" fill="#fff"/>
            <polyline fill="none" stroke="#fff" stroke-width="20" points="150,70 190,30 310,30 310,70"/>
        </mask>
    </defs>
    <g mask="url(#mask)">
        <g transform="rotate(30 160 160)">
            <rect width="240" height="480" x="-80" y="-80" fill="#3f7fbf"/>
            <rect width="240" height="480" x="160" y="-80" fill="#ffdf3f"/>
        </g>
    </g>
    <g fill="#fff" transform="translate(40 60) scale(0.5) translate(120 40)">
        <ellipse cx="30" cy="160" rx="30" ry="80"/>
        <rect width="130" height="160" x="30" y="80"/>
        <ellipse cx="290" cy="160" rx="30" ry="80"/>
        <rect width="130" height="160" x="160" y="80"/>
        <ellipse cx="160" cy="30" rx="80" ry="30"/>
        <rect width="160" height="30" x="80" y="30"/>
        <rect width="80" height="130" x="160" y="30" rx="40" ry="40"/>
        <rect width="40" height="80" x="160" y="80"/>
        <ellipse cx="160" cy="290" rx="80" ry="30"/>
        <rect width="160" height="30" x="80" y="260"/>
        <rect width="80" height="130" x="80" y="160" rx="40" ry="40"/>
        <rect width="40" height="80" x="120" y="160"/>
    </g>
</svg>
