<?xml version="1.0" encoding="UTF-8"?>
<svg xmlns="http://www.w3.org/2000/svg" width="320" height="320" version="1.1">
    <g fill="#5f7f9f">
        <path d="M 180,110 C 270,110 260,170 180,210 Q 120,240 150,270 C 170,290 190,280 190,250 C 190,240 250,225 250,250 C 250,280 210,320 170,320 C 120,320 50,250 50,200 C 50,150 110,110 180,110"/>
        <ellipse cx="50" cy="105" rx="18" ry="28" transform="rotate(-25 50 105)"/>
        <ellipse cx="95" cy="70" rx="20" ry="30" transform="rotate(-10 95 70)"/>
        <ellipse cx="155" cy="45" rx="22" ry="35" transform="rotate(5 155 45)"/>
        <ellipse cx="240" cy="45" rx="32" ry="50" transform="rotate(35 240 45)"/>
    </g>
</svg>
