<?xml version="1.0" encoding="UTF-8"?>
<svg xmlns="http://www.w3.org/2000/svg" width="320" height="320" version="1.1">
    <g fill="#f6d2a1">
        <rect width="40" height="20" x="40" y="160" rx="5" ry="5"/>
        <rect width="40" height="20" x="240" y="160" rx="5" ry="5"/>
        <rect width="40" height="20" x="80" y="290" rx="5" ry="5" transform="rotate(-45 100 300)"/>
        <rect width="40" height="20" x="200" y="290" rx="5" ry="5" transform="rotate(45 220 300)"/>
    </g>
    <g fill="#73cddc">
        <circle cx="70" cy="40" r="20"/>
        <circle cx="250" cy="40" r="20"/>
        <g fill="#000000">
            <circle cx="70" cy="40" r="8"/>
            <circle cx="250" cy="40" r="8"/>
        </g>
        <rect width="200" height="320" x="60" y="0" rx="100" ry="80"/>
    </g>
    <g fill="#ffffff">
        <circle cx="120" cy="50" r="30"/>
        <circle cx="200" cy="50" r="30"/>
        <rect width="8" height="20" x="152" y="100"/>
        <rect width="8" height="20" x="160" y="100"/>
    </g>
    <ellipse cx="160" cy="100" fill="#f6d2a1" rx="20" ry="10"/>
    <g fill="#000000">
        <circle cx="100" cy="50" r="10"/>
        <circle cx="180" cy="50" r="10"/>
        <ellipse cx="160" cy="90" rx="12" ry="8"/>
    </g>
</svg>
