<?xml version="1.0" encoding="UTF-8"?>
<svg xmlns="http://www.w3.org/2000/svg" width="320" height="320" version="1.1">
    <rect width="320" height="320" x="0" y="0" fill="#f8dc3d"/>
    <g fill="none" stroke="#000" stroke-width="20" transform="translate(60 60)">
        <path d="M 70,0 V 80 Q 70,110 40,110 Q 10,110 10,80"/>
        <path d="M 200,10 H 160 Q 130,10 130,30 Q 130,50 160,60 Q 190,70 190,90 Q 190,110 160,110 H 120"/>
    </g>
    <path fill="none" stroke="#f00" stroke-width="20" d="M 40,290 Q 50,290 60,260 Q 70,230 80,230 Q 90,230 100,260 Q 110,290 120,290 Q 130,290 140,260 Q 150,230 160,230 Q 170,230 180,260 Q 190,290 200,290 Q 210,290 220,260 Q 230,230 240,230 Q 250,230 260,260 Q 270,290 280,290"/>
</svg>
