<?xml version="1.0" encoding="UTF-8"?>
<svg xmlns="http://www.w3.org/2000/svg" xmlns:xlink="http://www.w3.org/1999/xlink" width="320" height="320" version="1.1">
    <defs>
        <clipPath id="clip">
            <circle cx="160" cy="160" r="120"/>
            <rect id="rect" width="80" height="80" x="120" y="0"/>
            <use transform="rotate(60 160 160)" xlink:href="#rect"/>
            <use transform="rotate(120 160 160)" xlink:href="#rect"/>
            <use transform="rotate(180 160 160)" xlink:href="#rect"/>
            <use transform="rotate(240 160 160)" xlink:href="#rect"/>
            <use transform="rotate(300 160 160)" xlink:href="#rect"/>
        </clipPath>
    </defs>
    <g clip-path="url(#clip)" transform="rotate(30 160 160)">
        <rect width="240" height="480" x="-80" y="-80" fill="#3f7fbf"/>
        <rect width="240" height="480" x="160" y="-80" fill="#ffdf3f"/>
    </g>
    <g fill="#fff" transform="translate(80 80) scale(0.5)">
        <ellipse cx="30" cy="160" rx="30" ry="80"/>
        <rect width="130" height="160" x="30" y="80"/>
        <ellipse cx="290" cy="160" rx="30" ry="80"/>
        <rect width="130" height="160" x="160" y="80"/>
        <ellipse cx="160" cy="30" rx="80" ry="30"/>
        <rect width="160" height="30" x="80" y="30"/>
        <rect width="80" height="130" x="160" y="30" rx="40" ry="40"/>
        <rect width="40" height="80" x="160" y="80"/>
        <ellipse cx="160" cy="290" rx="80" ry="30"/>
        <rect width="160" height="30" x="80" y="260"/>
        <rect width="80" height="130" x="80" y="160" rx="40" ry="40"/>
        <rect width="40" height="80" x="120" y="160"/>
    </g>
</svg>
