<?xml version="1.0" encoding="UTF-8"?>
<svg xmlns="http://www.w3.org/2000/svg" width="320" height="320" version="1.1">
    <defs>
        <mask id="mask">
            <rect width="320" height="320" x="0" y="0" fill="#fff"/>
            <g stroke="#000" stroke-width="20">
                <line x1="200" x2="280" y1="30" y2="30"/>
                <line x1="200" x2="280" y1="70" y2="70"/>
                <line x1="200" x2="280" y1="110" y2="110"/>
                <line x1="200" x2="280" y1="210" y2="210"/>
                <line x1="200" x2="280" y1="250" y2="250"/>
                <line x1="200" x2="280" y1="290" y2="290"/>
            </g>
        </mask>
    </defs>
    <g fill="#f8dc3d" mask="url(#mask)">
        <rect width="120" height="140" x="180" y="0"/>
        <rect width="120" height="140" x="180" y="180"/>
    </g>
    <g fill="#bfbfbf">
        <polygon points="120,20 180,70 120,120"/>
        <polygon points="120,200 180,250 120,300"/>
    </g>
    <path fill="none" stroke="#bfbfbf" stroke-width="20" d="M 120,70 H 80 Q 30,70 30,120 V 200 Q 30,250 80,250 H 120"/>
</svg>
