<?xml version="1.0" encoding="UTF-8"?>
<svg xmlns="http://www.w3.org/2000/svg" width="320" height="320" version="1.1">
    <polygon fill="#00bfff" points="0,160 40,160 90,240 50,240"/>
    <polygon fill="#00ffff" points="50,80 90,80 40,160 0,160"/>
    <polygon fill="#00ff7f" points="50,80 90,80 140,160 100,160"/>
    <polygon fill="#7fff00" points="150,80 190,80 140,160 100,160"/>
    <polygon fill="#ffff00" points="150,80 190,80 240,160 200,160"/>
    <polygon fill="#ffbf00" points="200,160 240,160 190,240 150,240"/>
    <polygon fill="#ff00bf" points="230,80 270,80 320,160 280,160"/>
    <polygon fill="#ff003f" points="280,160 320,160 270,240 230,240"/>
</svg>
