<?xml version="1.0" encoding="UTF-8"?>
<svg xmlns="http://www.w3.org/2000/svg" xmlns:xlink="http://www.w3.org/1999/xlink" width="320" height="320" version="1.1">
    <defs>
        <ellipse id="ellipse-top" cx="160" cy="140" rx="150" ry="80"/>
        <ellipse id="ellipse-bottom" cx="160" cy="190" rx="130" ry="90"/>
        <mask id="mask-top">
            <rect width="320" height="320" x="0" y="0" fill="#fff"/>
            <use fill="#000" xlink:href="#ellipse-bottom"/>
        </mask>
        <mask id="mask-bottom">
            <rect width="320" height="320" x="0" y="0" fill="#fff"/>
            <use fill="#000" xlink:href="#ellipse-top"/>
        </mask>
    </defs>
    <g fill="#efc743">
        <use mask="url(#mask-top)" xlink:href="#ellipse-top"/>
        <polygon points="120,80 160,40 200,80"/>
        <polygon points="40,100 60,50 100,80"/>
        <polygon points="280,100 260,50 220,80"/>
        <polygon points="10,140 0,90 60,120"/>
        <polygon points="310,140 320,90 260,120"/>
    </g>
    <g fill="#ffffff">
        <use mask="url(#mask-bottom)" xlink:href="#ellipse-bottom"/>
        <polygon points="20,165 40,160 80,220 30,190"/>
        <polygon points="300,165 280,160 240,220 290,190"/>
        <polygon points="80,230 160,180 240,230"/>
    </g>
</svg>
