<?xml version="1.0" encoding="UTF-8"?>
<svg xmlns="http://www.w3.org/2000/svg" width="320" height="320" version="1.1">
    <rect width="320" height="260" x="0" y="60" fill="#bf9f5f"/>
    <polygon fill="#dfbf7f" points="60,0 260,0 320,60 0,60"/>
    <polygon fill="#7f7f7f" points="140,0 180,0 200,60 120,60"/>
    <polygon fill="#3f3f3f" points="150,0 170,0 180,60 140,60"/>
    <polygon fill="#bfbfbf" points="160,0 170,0 172,10 148,10 146,25 174,25 177,40 143,40 140,60 160,60"/>
    <g fill="#d97634" transform="translate(50 80) scale(0.6875)">
        <polygon points="30,65 320,280 240,320 0,80"/>
        <polygon points="30,255 320,40 240,0 0,240"/>
        <polygon points="240,0 320,40 320,280 240,320"/>
    </g>
</svg>
