<?xml version="1.0" encoding="UTF-8"?>
<svg xmlns="http://www.w3.org/2000/svg" width="320" height="320" version="1.1">
    <defs>
        <mask id="mask">
            <rect width="320" height="320" x="0" y="0" fill="#fff"/>
            <g fill="#000">
                <ellipse cx="160" cy="245" rx="35" ry="60"/>
                <path d="M 110,80 Q 130,110 160 130 Q 120,110 100,90"/>
                <path d="M 300,260 Q 280,240 240,230 Q 280,250 300,280"/>
            </g>
        </mask>
    </defs>
    <rect width="320" height="260" x="0" y="60" fill="#bf9f5f"/>
    <polygon fill="#dfbf7f" points="60,0 260,0 320,60 0,60"/>
    <polygon fill="#7f7f7f" points="140,0 180,0 200,60 120,60"/>
    <polygon fill="#3f3f3f" points="150,0 170,0 180,60 140,60"/>
    <polygon fill="#bfbfbf" points="160,0 170,0 172,10 148,10 146,25 174,25 177,40 143,40 140,60 160,60"/>
    <path fill="#1793d1" d="M 160,0 Q 100,160 0,320 Q 160,200 320,320 Q 220,160 160,0" mask="url(#mask)" transform="translate(50 80) scale(0.6875)"/>
</svg>
