<?xml version="1.0" encoding="UTF-8"?>
<svg xmlns="http://www.w3.org/2000/svg" width="320" height="320" version="1.1">
    <defs>
        <clipPath id="clip">
            <path d="M 160,120 Q 130,120 100,100 Q 85,90 70,90 A 70,70 0 0,0 0,160 A 70,70 0 0,0 70,230 Q 85,230 100,220 Q 130,200 160,200 Q 190,200 220,220 Q 235,230 250,230 A 70,70 0 0,0 320,160 A 70,70 0 0,0 250,90 Q 235,90 220,100 Q 190,120 160,120"/>
        </clipPath>
        <linearGradient id="gradient-back" x1="0" x2="1" y1="0" y2="0">
            <stop offset="0%" stop-color="#ffbf5f"/>
            <stop offset="100%" stop-color="#f76757"/>
        </linearGradient>
        <linearGradient id="gradient-front" x1="0" x2="1" y1="0" y2="0">
            <stop offset="0%" stop-color="#d74737"/>
            <stop offset="50%" stop-color="#ffbf47"/>
            <stop offset="100%" stop-color="#ffdf9f"/>
        </linearGradient>
    </defs>
    <g clip-path="url(#clip)">
        <rect width="320" height="320" x="0" y="0" fill="url(#gradient-back)"/>
        <path fill="none" stroke="url(#gradient-front)" stroke-width="40" d="M 10,80 C -60,180 30,240 100,200 L 220,120 C 290,80 380,140 310,240"/>
    </g>
</svg>
