<?xml version="1.0" encoding="UTF-8"?>
<svg xmlns="http://www.w3.org/2000/svg" width="320" height="320" version="1.1">
    <defs>
        <mask id="mask">
            <rect width="320" height="320" x="0" y="0" fill="#fff"/>
            <g fill="#000">
                <circle cx="130" cy="30" r="10"/>
                <circle cx="190" cy="290" r="10"/>
            </g>
        </mask>
    </defs>
    <g mask="url(#mask)">
        <g fill="#3f7fbf">
            <ellipse cx="30" cy="160" rx="30" ry="80"/>
            <rect width="130" height="160" x="30" y="80"/>
        </g>
        <g fill="#ffdf3f">
            <ellipse cx="290" cy="160" rx="30" ry="80"/>
            <rect width="130" height="160" x="160" y="80"/>
        </g>
        <g fill="#3f7fbf">
            <ellipse cx="160" cy="30" rx="80" ry="30"/>
            <rect width="160" height="30" x="80" y="30"/>
            <rect width="80" height="140" x="160" y="20" rx="40" ry="40"/>
            <rect width="40" height="80" x="160" y="80"/>
        </g>
        <g fill="#ffdf3f">
            <ellipse cx="160" cy="290" rx="80" ry="30"/>
            <rect width="160" height="30" x="80" y="260"/>
            <rect width="80" height="140" x="80" y="160" rx="40" ry="40"/>
            <rect width="40" height="80" x="120" y="160"/>
        </g>
    </g>
</svg>
