<?xml version="1.0" encoding="UTF-8"?>
<svg xmlns="http://www.w3.org/2000/svg" width="320" height="320" version="1.1">
    <g fill="none" fill-rule="evenodd">
        <rect width="320" height="320" fill="#DD4B39"/>
        <path fill="#FFF" d="M123.939453,175.095703 L123.939453,212.216797 L151.990234,212.216797 C158.932977,212.104817 164.139957,210.089212 167.611328,206.169922 C171.02671,202.530581 172.734375,198.051459 172.734375,192.732422 C172.622395,186.349577 170.578796,181.730483 166.603516,178.875 C163.468083,176.355456 158.932972,175.095703 152.998047,175.095703 L123.939453,175.095703 Z M105.378906,281 L105.378906,158.550781 L153.166016,158.550781 C163.356171,158.550781 171.670541,161.238254 178.109375,166.613281 C185.891966,172.716176 189.95117,181.422469 190.287109,192.732422 C190.06315,209.361411 182.168698,220.671194 166.603516,226.662109 L194.990234,281 L172.902344,281 L147.623047,228.677734 L123.939453,228.677734 L123.939453,281 L105.378906,281 Z M210.275391,281 L288.464844,281 L288.464844,263.447266 L228.835938,263.447266 L228.835938,227.501953 L279.730469,227.501953 L279.730469,211.041016 L228.835938,211.041016 L228.835938,176.103516 L288.464844,176.103516 L288.464844,158.550781 L210.275391,158.550781 L210.275391,281 Z"/>
    </g>
</svg>
