<?xml version="1.0" encoding="UTF-8"?>
<svg xmlns="http://www.w3.org/2000/svg" xmlns:xlink="http://www.w3.org/1999/xlink" width="320" height="320" version="1.1">
    <defs>
        <g id="cube">
            <polygon fill="#00a5ea" points="40,40 80,20 40,0 0,20"/>
            <polygon fill="#2b6cb7" points="40,40 0,20 0,60 40,80"/>
            <polygon fill="#363a67" points="40,40 40,80 80,60 80,20"/>
        </g>
    </defs>
    <polygon id="polygon" fill="#00a5ea" points="20,80 160,0 300,80 260,100 160,40 60,100"/>
    <polygon id="polygon" fill="#2b6cb7" points="160,320 20,240 20,80 60,100 60,220 160,280"/>
    <polygon id="polygon" fill="#363a67" points="300,80 300,240 160,320 160,280 260,220 260,100"/>
    <use x="120" y="60" xlink:href="#cube"/>
    <use x="70" y="150" xlink:href="#cube"/>
    <use x="170" y="150" xlink:href="#cube"/>
    <use x="70" y="90" xlink:href="#cube"/>
    <use x="170" y="90" xlink:href="#cube"/>
    <use x="120" y="180" xlink:href="#cube"/>
    <use x="120" y="120" xlink:href="#cube"/>
</svg>
