<?xml version="1.0" encoding="UTF-8"?>
<svg 
    xmlns="http://www.w3.org/2000/svg" 
    xmlns:xlink="http://www.w3.org/1999/xlink" version="1.1" width="320" height="320">
    <defs>
        <g id="cube">
            <polygon points="40,40 80,20 40,0 0,20" fill="#00a5ea"/>
            <polygon points="40,40 0,20 0,60 40,80" fill="#2b6cb7"/>
            <polygon points="40,40 40,80 80,60 80,20" fill="#363a67"/>
        </g>
    </defs>
    <polygon id="polygon" points="20,80 160,0 300,80 260,100 160,40 60,100" fill="#00a5ea"/>
    <polygon id="polygon" points="160,320 20,240 20,80 60,100 60,220 160,280" fill="#2b6cb7"/>
    <polygon id="polygon" points="300,80 300,240 160,320 160,280 260,220 260,100" fill="#363a67"/>
    <use xlink:href="#cube" x="120" y="60"/>
    <use xlink:href="#cube" x="70" y="150"/>
    <use xlink:href="#cube" x="170" y="150"/>
    <use xlink:href="#cube" x="70" y="90"/>
    <use xlink:href="#cube" x="170" y="90"/>
    <use xlink:href="#cube" x="120" y="180"/>
    <use xlink:href="#cube" x="120" y="120"/>
</svg>