<?xml version="1.0" encoding="UTF-8"?>
<svg xmlns="http://www.w3.org/2000/svg" xmlns:xlink="http://www.w3.org/1999/xlink" width="320" height="320" version="1.1">
    <defs>
        <rect id="branch-background" width="60" height="120" x="130" y="60" fill="#000000"/>
        <g id="branch" fill="#ffffff">
            <circle cx="160" cy="60" r="30" stroke="#000000" stroke-width="20"/>
            <rect width="20" height="120" x="150" y="60"/>
        </g>
    </defs>
    <rect width="200" height="200" x="0" y="0" fill="#ffb13b" rx="20" ry="20"/>
    <rect width="200" height="200" x="120" y="120" fill="#de8500" rx="20" ry="20"/>
    <g fill="#ff9900">
        <rect width="160" height="160" x="160" y="0" rx="20" ry="20"/>
        <rect width="160" height="160" x="0" y="160" rx="20" ry="20"/>
        <circle cx="60" cy="160" r="60"/>
        <circle cx="90" cy="90" r="60"/>
        <circle cx="160" cy="60" r="60"/>
        <circle cx="230" cy="90" r="60"/>
        <circle cx="260" cy="160" r="60"/>
        <circle cx="160" cy="260" r="60"/>
    </g>
    <g fill="#000000">
        <circle cx="60" cy="160" r="40"/>
        <circle cx="90" cy="90" r="40"/>
        <circle cx="160" cy="60" r="40"/>
        <circle cx="230" cy="90" r="40"/>
        <circle cx="260" cy="160" r="40"/>
    </g>
    <use transform="rotate(-90 160 160)" xlink:href="#branch-background"/>
    <use transform="rotate(-45 160 160)" xlink:href="#branch-background"/>
    <use transform="rotate(0 160 160)" xlink:href="#branch-background"/>
    <use transform="rotate(45 160 160)" xlink:href="#branch-background"/>
    <use transform="rotate(90 160 160)" xlink:href="#branch-background"/>
    <use transform="rotate(-90 160 160)" xlink:href="#branch"/>
    <use transform="rotate(-45 160 160)" xlink:href="#branch"/>
    <use transform="rotate(0 160 160)" xlink:href="#branch"/>
    <use transform="rotate(45 160 160)" xlink:href="#branch"/>
    <use transform="rotate(90 160 160)" xlink:href="#branch"/>
    <rect width="280" height="140" x="20" y="160" fill="#000000" rx="20" ry="20"/>
    <g fill="none" stroke="#ffffff" stroke-linejoin="round" stroke-width="20">
        <polyline points="100,190 50,190 50,230 90,230 90,270 40,270"/>
        <polyline points="130,180 130,250 150,270 170,250 170,180"/>
        <polyline points="280,190 230,190 210,210 210,250 230,270 270,270 270,230 240,230"/>
    </g>
</svg>
