<?xml version="1.0" encoding="UTF-8"?>
<svg xmlns="http://www.w3.org/2000/svg" xmlns:xlink="http://www.w3.org/1999/xlink" width="320" height="320" version="1.1">
    <defs>
        <g id="headgear">
            <ellipse cx="160" cy="160" clip-path="url(#clip)" rx="130" ry="155"/>
            <path d="M 20,100 Q 160,60 300,100 Q 310,130 290,160 Q 160,120 30,160 Q 10,130 20,100 Z"/>
        </g>
        <path id="glasses" d="M 40,160 Q 160,120 280,160 L 270,210 L 250,230 L 180,220 L 170,180 H 150 L 140,220 L 70,230 L 50,210 Z"/>
        <clipPath id="clip">
            <rect width="320" height="100" x="0" y="0"/>
        </clipPath>
        <mask id="mask">
            <rect width="320" height="320" x="0" y="0" fill="#fff"/>
            <use fill="#000" xlink:href="#headgear"/>
            <use fill="#fff" stroke="#fff" stroke-width="20" xlink:href="#glasses"/>
        </mask>
    </defs>
    <g stroke="#2d3136" stroke-width="10">
        <ellipse cx="160" cy="160" fill="#e6cbac" rx="120" ry="155"/>
        <use fill="#f2ebac" xlink:href="#headgear"/>
    </g>
    <g stroke="#ca3349" stroke-width="20">
        <line x1="120" x2="200" y1="40" y2="40"/>
        <line x1="160" x2="160" y1="40" y2="120"/>
    </g>
    <g fill="#000000">
        <circle cx="110" cy="185" r="15"/>
        <circle cx="210" cy="185" r="15"/>
    </g>
    <g fill="#ffffff">
        <circle cx="112" cy="180" r="3"/>
        <circle cx="208" cy="180" r="3"/>
    </g>
    <use fill="none" stroke="#656c67" stroke-width="20" xlink:href="#glasses"/>
    <g fill="#ca3349" stroke="none" mask="url(#mask)">
        <path d="M 100,120 Q 60,140 20,180 Q 70,150 140,130"/>
        <path d="M 160,130 Q 130,130 100,160 Q 150,135 200,130"/>
        <path d="M 210,120 Q 205,145 180,160 Q 240,150 260,120"/>
    </g>
    <polygon fill="#ca3349" points="120,240 160,245 200,240 220,260 260,260 280,250 260,290 200,300 160,280 120,300 60,290 40,250 60,260 100,260"/>
</svg>
