<?xml version="1.0" encoding="UTF-8" standalone="no"?>
<!DOCTYPE svg PUBLIC "-//W3C//DTD SVG 1.1//EN" "http://www.w3.org/Graphics/SVG/1.1/DTD/svg11.dtd">
<svg xmlns="http://www.w3.org/2000/svg" xmlns:serif="http://www.serif.com/" xmlns:xlink="http://www.w3.org/1999/xlink" width="100%" height="100%" style="fill-rule:evenodd;clip-rule:evenodd;stroke-linejoin:round;stroke-miterlimit:2" version="1.1" viewBox="0 0 320 320" xml:space="preserve">
    <g transform="matrix(0.88018,0,0,0.88018,-59.9629,-77.721)">
        <g id="_-597ba8ff" serif:id="#597ba8ff">
            <path d="M73.53,97.48C75.53,94.19 79.87,94.85 83.14,94.96C112.05,97.85 140.97,100.64 169.89,103.47C173.21,103.96 176.68,103.92 179.82,105.25C184.58,107.54 188.51,111.63 190.2,116.69C210.32,173.86 230.16,231.13 250.36,288.26C256.8,268.63 263.91,249.21 270.61,229.66C283.69,192.09 296.8,154.53 309.87,116.95C311.98,109.92 318.65,104.47 326.01,104C352.16,101.34 378.33,98.89 404.49,96.25C410.04,95.96 415.54,94.8 421.12,94.93C423.35,94.99 425.78,96.03 426.7,98.2C427.82,100.5 427.11,103.11 426.4,105.42C386.47,216.5 346.52,327.57 306.61,438.66C305.76,441.51 303.45,443.5 301.12,445.16C271.07,445.13 241.03,445.13 210.98,445.15C202.86,446.35 194.23,441.5 191.63,433.6C152.63,325.19 113.66,216.76 74.66,108.34C73.47,104.87 71.22,101 73.53,97.48Z" style="fill:rgb(89,123,168);fill-rule:nonzero"/>
        </g>
    </g>
</svg>
