<?xml version="1.0" encoding="UTF-8"?>
<svg 
    xmlns="http://www.w3.org/2000/svg" version="1.1" width="320" height="320">
    <defs>
        <mask id="mask">
            <rect x="0" y="0" width="320" height="320" fill="#fff"/>
            <g fill="none" stroke="#000" stroke-width="20">
                <polygon points="90,130 130,130 130,190 90,190"/>
                <polygon points="190,230 230,230 230,290 190,290"/>
                <polyline points="180,150 210,150 210,120 210,190 180,190 240,190"/>
                <polyline points="80,250 110,250 110,220 110,290 80,290 140,290"/>
            </g>
        </mask>
    </defs>
    <g fill="#bfbfbf">
        <polygon points="180,0 280,100 240,100 180,40"/>
        <rect x="40" y="0" width="140" height="100"/>
        <rect x="40" y="100" width="240" height="220" mask="url(#mask)"/>
    </g>
</svg>