<?xml version="1.0" encoding="UTF-8"?>
<svg xmlns="http://www.w3.org/2000/svg" width="320" height="320" version="1.1">
    <defs>
        <mask id="mask-top-left">
            <rect width="320" height="320" x="0" y="0" fill="#fff"/>
            <text x="35" y="155" fill="#000" font-family="Arial" font-size="120">
                6
            </text>
        </mask>
        <mask id="mask-top-right">
            <rect width="320" height="320" x="0" y="0" fill="#fff"/>
            <text x="215" y="155" fill="#000" font-family="Arial" font-size="120">
                6
            </text>
        </mask>
        <mask id="mask-bottom-left">
            <rect width="320" height="320" x="0" y="0" fill="#fff"/>
            <ellipse cx="90" cy="220" fill="#000" rx="25" ry="30"/>
        </mask>
        <mask id="mask-bottom-right">
            <rect width="320" height="320" x="0" y="0" fill="#fff"/>
            <ellipse cx="230" cy="220" fill="#000" rx="25" ry="30"/>
        </mask>
        <mask id="mask-eyes">
            <rect width="320" height="320" x="0" y="0" fill="#fff"/>
            <g fill="none" stroke="#000" stroke-width="10">
                <circle cx="130" cy="160" r="15"/>
                <circle cx="190" cy="160" r="15"/>
            </g>
        </mask>
    </defs>
    <g fill="#bfbfbf" mask="url(#mask-eyes)">
        <ellipse cx="70" cy="110" mask="url(#mask-top-left)" rx="60" ry="70" transform="rotate(135 70 110)"/>
        <ellipse cx="250" cy="110" mask="url(#mask-top-right)" rx="60" ry="70" transform="rotate(45 250 110)"/>
        <ellipse cx="90" cy="220" mask="url(#mask-bottom-left)" rx="50" ry="60" transform="rotate(45 90 220)"/>
        <ellipse cx="230" cy="220" mask="url(#mask-bottom-right)" rx="50" ry="60" transform="rotate(-45 230 220)"/>
        <ellipse cx="160" cy="180" rx="50" ry="40"/>
    </g>
</svg>
