<?xml version="1.0" encoding="UTF-8"?>
<svg xmlns="http://www.w3.org/2000/svg" width="320" height="320" version="1.1">
    <defs>
        <mask id="mask">
            <rect width="320" height="320" x="0" y="0" fill="#fff"/>
            <polygon fill="#000" points="140,0 180,0 200,60 120,60"/>
            <path fill="none" stroke="#000" stroke-linecap="round" stroke-width="15" d="M 160,300 Q 80,280 80,180 Q 80,100 160,100 Q 240,100 240,160 Q 240,220 180,220 Q 140,220 140,180 Q 140,140 170,140"/>
        </mask>
    </defs>
    <g fill="#bfbfbf">
        <g mask="url(#mask)">
            <rect width="320" height="260" x="0" y="60"/>
            <polygon points="60,0 260,0 320,60 0,60"/>
        </g>
        <polygon points="160,0 170,0 172,10 148,10 146,25 174,25 177,40 143,40 140,60 160,60"/>
    </g>
</svg>
