<?xml version="1.0" encoding="UTF-8"?>
<svg 
    xmlns="http://www.w3.org/2000/svg" version="1.1" width="320" height="320">
    <defs>
        <mask id="mask">
            <rect x="0" y="0" width="320" height="320" fill="#fff"/>
            <polygon points="140,0 180,0 200,60 120,60" fill="#000"/>
            <path d="M 160,300 Q 80,280 80,180 Q 80,100 160,100 Q 240,100 240,160 Q 240,220 180,220 Q 140,220 140,180 Q 140,140 170,140" fill="none" stroke="#000" stroke-width="15" stroke-linecap="round"/>
        </mask>
    </defs>
    <g fill="#bfbfbf">
        <g mask="url(#mask)">
            <rect x="0" y="60" width="320" height="260"/>
            <polygon points="60,0 260,0 320,60 0,60"/>
        </g>
        <polygon points="160,0 170,0 172,10 148,10 146,25 174,25 177,40 143,40 140,60 160,60"/>
    </g>
</svg>