<?xml version="1.0" encoding="UTF-8"?>
<svg 
    xmlns="http://www.w3.org/2000/svg" 
    xmlns:xlink="http://www.w3.org/1999/xlink" version="1.1" width="320" height="320">
    <defs>
        <path id="path" d="M 0,160 Q 0,260 100,260 Q 200,260 270,160 Q 300,160 320,130 Q 295,120 270,130 Q 270,100 250,90 Q 230,120 250,150 Q 240,160 220,160"/>
        <clipPath id="clip">
            <use xlink:href="#path"/>
        </clipPath>
        <mask id="mask">
            <rect x="0" y="0" width="320" height="320" fill="#fff"/>
            <circle cx="90" cy="210" r="10" fill="#000" stroke="#000" stroke-width="3"/>
        </mask>
    </defs>
    <g fill="#bfbfbf">
        <path d="M 0,160 Q 0,260 100,260 Q 200,260 270,160 Q 300,160 320,130 Q 295,120 270,130 Q 270,100 250,90 Q 230,120 250,150 Q 240,160 220,160" mask="url(#mask)"/>
        <rect x="40" y="100" width="40" height="40"/>
        <rect x="100" y="100" width="40" height="40"/>
        <rect x="160" y="100" width="40" height="40"/>
        <rect x="100" y="40" width="40" height="40"/>
    </g>
</svg>