<?xml version="1.0" encoding="UTF-8"?>
<svg xmlns="http://www.w3.org/2000/svg" width="320" height="320" version="1.1">
    <defs>
        <mask id="mask">
            <rect width="320" height="320" x="0" y="0" fill="#fff"/>
            <g fill="#000" transform="translate(40 60) scale(0.5) translate(120 40)">
                <ellipse cx="30" cy="160" rx="30" ry="80"/>
                <rect width="130" height="160" x="30" y="80"/>
                <ellipse cx="290" cy="160" rx="30" ry="80"/>
                <rect width="130" height="160" x="160" y="80"/>
                <ellipse cx="160" cy="30" rx="80" ry="30"/>
                <rect width="160" height="30" x="80" y="30"/>
                <rect width="80" height="130" x="160" y="30" rx="40" ry="40"/>
                <rect width="40" height="80" x="160" y="80"/>
                <ellipse cx="160" cy="290" rx="80" ry="30"/>
                <rect width="160" height="30" x="80" y="260"/>
                <rect width="80" height="130" x="80" y="160" rx="40" ry="40"/>
                <rect width="40" height="80" x="120" y="160"/>
            </g>
        </mask>
    </defs>
    <rect width="280" height="200" x="40" y="60" fill="#bfbfbf" mask="url(#mask)"/>
    <polyline fill="none" stroke="#bfbfbf" stroke-width="20" points="150,70 190,30 310,30 310,70"/>
</svg>
