<?xml version="1.0" encoding="UTF-8"?>
<svg xmlns="http://www.w3.org/2000/svg" xmlns:xlink="http://www.w3.org/1999/xlink" width="320" height="320" version="1.1">
    <defs>
        <polygon id="polygon" points="160,10 10,50 30,230 160,310 290,230 310,50"/>
        <mask id="mask">
            <rect width="320" height="320" x="0" y="0" fill="#fff"/>
            <use fill="none" stroke="#000" stroke-width="60" xlink:href="#polygon"/>
            <g fill="#000">
                <polygon points="10,60 30,230 90,260 80,90"/>
                <polygon points="10,60 160,120 160,155 10,90"/>
                <polygon points="10,110 140,175 140,205 10,140"/>
            </g>
            <path fill="none" stroke="#000" stroke-width="30" d="M 175,300 V 130 L 200,120 C 260,95 260,155 200,175 L 175,185 M 200,175 C 260,155 260,210 200,235 L 175,250"/>
        </mask>
    </defs>
    <use fill="none" stroke="#bfbfbf" stroke-width="20" xlink:href="#polygon"/>
    <g mask="url(#mask)">
        <polygon fill="#bfbfbf" points="160,10 10,60 30,230 160,310 160,120 310,60"/>
        <polygon fill="#bfbfbf" points="160,120 160,310 290,230 310,60"/>
    </g>
</svg>
