<?xml version="1.0" encoding="UTF-8"?>
<svg 
    xmlns="http://www.w3.org/2000/svg" version="1.1" width="320" height="320">
    <defs>
        <mask id="mask-ears">
            <rect x="0" y="0" width="320" height="320" fill="#fff"/>
            <g fill="#000">
                <circle cx="70" cy="40" r="8"/>
                <circle cx="250" cy="40" r="8"/>
            </g>
        </mask>
        <mask id="mask">
            <rect x="0" y="0" width="320" height="320" fill="#fff"/>
            <g fill="#000">
                <circle cx="120" cy="50" r="30"/>
                <circle cx="200" cy="50" r="30"/>
            </g>
            <rect x="152" y="100" width="8" height="20"/>
            <rect x="160" y="100" width="8" height="20"/>
            <ellipse cx="160" cy="100" rx="20" ry="10"/>
            <ellipse cx="160" cy="90" rx="12" ry="8"/>
        </mask>
    </defs>
    <g fill="#bfbfbf">
        <rect x="40" y="160" width="40" height="20" rx="5" ry="5"/>
        <rect x="240" y="160" width="40" height="20" rx="5" ry="5"/>
        <rect x="80" y="290" width="40" height="20" rx="5" ry="5" transform="rotate(-45 100 300)"/>
        <rect x="200" y="290" width="40" height="20" rx="5" ry="5" transform="rotate(45 220 300)"/>
        <g mask="url(#mask-ears)">
            <circle cx="70" cy="40" r="20"/>
            <circle cx="250" cy="40" r="20"/>
        </g>
        <rect x="60" y="0" width="200" height="320" rx="100" ry="80" mask="url(#mask)"/>
        <circle cx="100" cy="50" r="10"/>
        <circle cx="180" cy="50" r="10"/>
    </g>
</svg>