<?xml version="1.0" encoding="UTF-8"?>
<svg 
    xmlns="http://www.w3.org/2000/svg" 
    xmlns:xlink="http://www.w3.org/1999/xlink" version="1.1" width="320" height="320">
    <defs>
        <path id="path-main" d="M 120,80 C 60,40 40,60 60,90 V 120 Q 40,140 60,160 Q 80,180 80,190 V 260 Q 80,300 160,300 Q 240,300 240,260 V 190 Q 240,180 260,160 Q 280,140 260,120 V 90 C 280,60 260,40 200,80"/>
        <path id="path-tusks" d="M 60,200 Q 70,240 120,240 H 200 Q 250,240 260,200 C 280,240 260,280 200,280 H 120 C 60,280 40,240 60,200"/>
        <mask id="mask-main">
            <rect x="0" y="0" width="320" height="320" fill="#fff"/>
            <g fill="#000" stroke="#000" stroke-width="10" stroke-linejoin="round" stroke-linecap="round">
                <path d="M 90,110 L 130,140 A 20,20 0 0,1 90,110"/>
                <path d="M 230,110 L 190,140 A 20,20 0 0,0 230,110"/>
                <g fill="none">
                    <use xlink:href="#path-tusks"/>
                    <path d="M 130,190 L 100,260 C 120,330 200,330 220,260 L 190,190" fill="#fff"/>
                    <line x1="110" y1="250" x2="210" y2="250"/>
                </g>
                <polygon points="120,265 140,265 130,275"/>
                <polygon points="200,265 180,265 190,275"/>
            </g>
        </mask>
        <mask id="mask-tusks">
            <rect x="0" y="0" width="320" height="320" fill="#fff"/>
            <use xlink:href="#path-main" fill="#000" stroke="#000" stroke-width="10" stroke-linejoin="round" stroke-linecap="round"/>
        </mask>
    </defs>
    <path d="M 130,40 Q 130,20 140,10 Q 140,20 150,30 Q 150,10 170,0 Q 165,10 175,25 Q 180,15 190,15 Q 185,30 190,40" fill="#bfbfbf"/>
    <g fill="#bfbfbf" stroke="#bfbfbf" stroke-width="10" stroke-linejoin="round" stroke-linecap="round">
        <g mask="url(#mask-main)">
            <path d="M 120,40 Q 80,0 50,30 Q 70,40 70,60 V 80"/>
            <path d="M 200,40 Q 240,0 270,30 Q 250,40 250,60 V 80"/>
            <ellipse cx="160" cy="80" rx="80" ry="40"/>
            <use xlink:href="#path-main"/>
        </g>
        <use xlink:href="#path-tusks" mask="url(#mask-tusks)"/>
    </g>
</svg>