<svg width="320" height="320" viewBox="0 0 320 320" xmlns="http://www.w3.org/2000/svg"><g fill-rule="nonzero" fill="none"><path d="M167.53 238.973c8.293-.436 14.893-3.383 19.802-8.838 4.91-5.456 7.366-11.674 7.366-18.656 0-7.637-2.454-14.075-7.366-19.311-4.91-5.237-11.511-8.947-19.802-11.13v57.937-.002ZM154.11 83.17c-8.075.436-14.402 3.055-18.987 7.855-4.582 4.8-6.873 10.364-6.873 16.693 0 6.547 2.237 12.493 6.71 17.838 4.474 5.348 10.857 8.565 19.15 9.657V83.167v.002Zm0 200.975v-12.766c-12.222-1.09-22.64-3.166-31.26-6.22-8.62-3.054-15.71-7.419-21.275-13.093-5.563-5.675-9.656-12.711-12.274-21.113-2.619-8.402-3.929-18.385-3.929-29.95h39.28c.872 6.982 2.018 12.766 3.437 17.348 1.42 4.583 3.273 8.293 5.564 11.13 2.291 2.836 5.074 4.964 8.346 6.382 3.272 1.419 7.31 2.455 12.11 3.11v-63.174c-10.91-2.836-20.403-6.055-28.476-9.657-8.074-3.599-14.784-7.854-20.131-12.766-5.346-4.91-9.383-10.584-12.11-17.022-2.728-6.437-4.091-14.13-4.091-23.077 0-8.508 1.637-16.528 4.91-24.057 3.272-7.528 7.8-14.13 13.582-19.803 5.784-5.675 12.602-10.146 20.459-13.42 7.855-3.273 16.474-5.019 25.857-5.237V36.356h13.42v14.403c40.37 1.308 61.537 22.476 63.501 63.5h-38.624c-1.09-11.783-3.655-19.802-7.692-24.057-4.037-4.256-9.765-6.603-17.184-7.039v56.3c14.62 4.8 26.349 9.492 35.187 14.075 8.838 4.582 15.602 9.436 20.294 14.566 4.691 5.127 7.801 10.746 9.33 16.857 1.528 6.11 2.29 13.202 2.29 21.275 0 9.601-1.581 18.274-4.744 26.022-3.166 7.746-7.693 14.457-13.585 20.13-5.89 5.674-12.983 10.148-21.275 13.42-8.293 3.273-17.458 5.128-27.495 5.564v12.766h-13.42l-.003.006Z" fill="#bfbfbf"/><path d="M235.066 33.002h11.709l1.272.01.63.008.623.01.927.02.611.016.607.018c.403.013.803.027 1.199.043l.592.025.294.014.585.028.29.015.578.032.286.017.57.035c.379.024.754.05 1.126.077l.555.042.55.045c.274.022.546.046.817.07l.538.05.533.053.265.027.525.056c.175.018.349.038.521.058l.516.06.257.03.508.064c.338.044.672.088 1.003.135l.494.07c3.03.442 5.782 1.013 8.253 1.714 6.68 1.893 11.863 4.785 15.551 8.674 3.689 3.886 6.13 8.822 7.328 14.803 1.195 5.98 1.794 12.959 1.794 20.935l-.002.404-.005.43-.01.572-.012.486-.01.381-.023.668-.027.707-.025.594-.037.778-.032.65-.036.677-.039.701-.042.727c-.187 3.178-.33 6.442-.428 9.796l-.02.671c-.093 3.401-.234 6.666-.418 9.798l-.07 1.166-.061 1.068-.04.716-.046.936-.034.74-.024.574-.012.326-.014.411-.014.48-.01.44-.004.4-.002.222v.07c0 11.563 1.744 19.688 5.235 24.373 3.488 4.686 9.918 7.029 19.289 7.029v25.719c-9.371 0-15.8 2.293-19.29 6.877-3.453 4.54-5.199 12.5-5.233 23.879v.488l.003.385.006.336.009.36.011.387.014.412.026.665.032.722.038.778.028.551.048.873.074 1.253.032.53.042.74.041.747.02.377.039.76.019.383.036.772.034.78.033.788.031.797.015.401.03.81.013.407.026.82.013.414.024.834.025.913.028.979.03.97.033.961.017.477.037.948.019.47.04.934.041.925.044.916.046.907.024.45.05.893.067 1.17.04.702.035.676.032.65.037.779.025.594.027.707.022.667.018.628.008.358.007.454.005.43.002.404c0 7.975-.599 14.952-1.794 20.934-1.197 5.982-3.64 10.915-7.328 14.804-3.688 3.887-8.871 6.778-15.55 8.673-2.339.663-4.926 1.21-7.765 1.64l-.489.073c-.819.12-1.658.23-2.518.33l-.519.059c-.347.038-.698.075-1.051.11l-.533.053-.539.05c-.36.033-.724.064-1.09.093l-.553.044-.278.02-.56.04a123.1 123.1 0 0 1-.283.02l-.567.035-.572.035-.578.031-.29.015-.585.029-.59.026-.594.024c-.299.011-.599.022-.901.031l-.607.019-.612.016-.926.02-.624.01-.63.007c-.42.005-.844.008-1.272.01h-11.709V262.98h6.58c8.773 0 14.705-1.396 17.795-4.186 3.09-2.791 4.636-7.677 4.636-14.655 0-8.664-.28-17.279-.837-25.85l-.061-.918a397.518 397.518 0 0 1-.898-26.765c0-4.186.898-8.026 2.692-11.514a33.512 33.512 0 0 1 7.028-9.27c2.892-2.692 6.281-4.836 10.168-6.43a50.538 50.538 0 0 1 12.112-3.288 50.659 50.659 0 0 1-12.112-3.29c-3.889-1.596-7.278-3.738-10.168-6.43a33.512 33.512 0 0 1-7.028-9.27c-1.794-3.488-2.692-7.327-2.692-11.513 0-8.674.28-17.253.84-25.74l.058-.877a390.89 390.89 0 0 0 .898-26.617c0-6.979-1.546-11.863-4.636-14.655-3.09-2.79-9.022-4.186-17.795-4.186h-6.58V33.002ZM84.936 33v24.524h-6.58c-8.773 0-14.703 1.395-17.795 4.186-3.09 2.79-4.636 7.676-4.636 14.655 0 8.674.28 17.253.84 25.74l.058.877a390.89 390.89 0 0 1 .898 26.617c0 4.186-.898 8.025-2.692 11.513a33.512 33.512 0 0 1-7.028 9.27c-2.892 2.692-6.281 4.836-10.168 6.43a50.659 50.659 0 0 1-12.112 3.29 50.773 50.773 0 0 1 12.112 3.288c3.887 1.596 7.278 3.738 10.168 6.43a33.512 33.512 0 0 1 7.028 9.27c1.794 3.488 2.692 7.328 2.692 11.514 0 8.663-.28 17.278-.837 25.847l-.061.918a397.533 397.533 0 0 0-.898 26.768c0 6.978 1.544 11.862 4.636 14.655 3.09 2.79 9.022 4.186 17.795 4.186h6.58v24.526H73.227a277.1 277.1 0 0 1-1.272-.01l-.63-.009-.623-.01c-.31-.006-.62-.012-.927-.02l-.611-.015-.607-.019-.901-.031-.595-.024-.59-.026-.584-.029c-.097-.004-.194-.01-.29-.015l-.578-.031-.572-.035-.568-.036-.282-.019-.56-.04a118.03 118.03 0 0 1-.278-.02l-.553-.044c-.367-.03-.73-.06-1.09-.093l-.539-.05-.533-.052c-.354-.036-.704-.073-1.052-.111l-.518-.06-.257-.03-.512-.062-.253-.033-.504-.065c-3.426-.458-6.508-1.076-9.246-1.852-6.68-1.895-11.863-4.784-15.551-8.673-3.689-3.889-6.13-8.822-7.328-14.804-1.18-5.892-1.776-12.75-1.793-20.578v-.555l.003-.417.006-.442.007-.348.012-.486.01-.382.023-.667.027-.707.025-.594.036-.778.033-.651.036-.676.039-.702.042-.727.05-.888.05-.898.023-.453.045-.91.064-1.385.04-.934.018-.47.037-.948.017-.477.033-.961.03-.97.03-.98.024-.912.023-.834.026-.825.027-.817.029-.81.03-.8.016-.397.033-.789.034-.78.036-.772.038-.764.04-.755.04-.748.043-.739.087-1.479.034-.601.06-1.127.026-.525.034-.74.024-.575.012-.325.014-.412.014-.479.009-.44.005-.4.002-.291c0-11.563-1.744-19.638-5.235-24.225-3.488-4.584-9.92-6.877-19.291-6.877v-25.72c9.371 0 15.8-2.342 19.291-7.028 3.454-4.638 5.2-12.647 5.234-24.027v-.488l-.003-.385-.006-.336-.009-.36-.011-.387-.014-.412-.026-.665-.032-.722-.038-.778-.028-.551-.048-.873-.084-1.417a309.51 309.51 0 0 1-.431-9.753l-.016-.566a335.184 335.184 0 0 0-.413-9.83l-.08-1.364-.038-.701-.036-.676-.033-.651-.036-.778-.025-.594-.027-.707-.022-.668-.018-.627-.008-.358-.007-.455-.005-.43-.002-.305v-.098c0-7.976.599-14.955 1.794-20.935 1.195-5.981 3.64-10.917 7.328-14.803 3.688-3.89 8.871-6.779 15.55-8.674 2.472-.7 5.223-1.272 8.254-1.714l.494-.07c.331-.047.665-.091 1.003-.135l.508-.063.257-.031.516-.06c.172-.02.346-.04.52-.058l.526-.056c.088-.01.177-.018.265-.027l.533-.052.538-.05c.27-.025.543-.049.817-.071l.55-.045.555-.042a122.1 122.1 0 0 1 1.126-.077l.57-.035.286-.017.578-.032.29-.015.585-.028.294-.014.592-.025c.396-.016.796-.03 1.199-.043l.607-.018.611-.016.927-.02.624-.01.629-.008 1.272-.01h11.709Z" fill="#bfbfbf"/></g></svg>