<?xml version="1.0" encoding="UTF-8"?>
<svg xmlns="http://www.w3.org/2000/svg" width="320" height="320" version="1.1">
    <defs>
        <mask id="mask">
            <rect width="320" height="320" x="0" y="0" fill="#fff"/>
            <text x="20" y="220" fill="#000" font-family="Arial" font-size="160" font-weight="bold">
                N
            </text>
            <line x1="210" x2="210" y1="80" y2="220" stroke="#000" stroke-width="20"/>
        </mask>
    </defs>
    <g fill="none" stroke="#bfbfbf" stroke-width="20">
        <polyline points="160,50 270,50 270,70 310,70 310,130 270,130 270,270 160,270"/>
        <rect width="40" height="60" x="270" y="130"/>
        <rect width="40" height="60" x="270" y="190"/>
        <line x1="160" x2="240" y1="90" y2="90"/>
        <line x1="160" x2="240" y1="130" y2="130"/>
        <line x1="160" x2="240" y1="170" y2="170"/>
        <line x1="160" x2="240" y1="210" y2="210"/>
    </g>
    <polygon fill="#bfbfbf" points="0,40 160,0 160,320 0,280" mask="url(#mask)"/>
</svg>
