<?xml version="1.0" encoding="UTF-8"?>
<svg 
    xmlns="http://www.w3.org/2000/svg" version="1.1" width="320" height="320">
    <defs>
        <mask id="mask">
            <rect x="0" y="0" width="320" height="320" fill="#fff"/>
            <polygon points="140,0 180,0 200,60 120,60" fill="#000"/>
            <g transform="translate(64 94) scale(0.6)">
                <g fill="#000">
                    <circle cx="30" cy="30" r="30"/>
                    <rect x="60" y="60" width="260" height="260" rx="80" ry="80"/>
                </g>
                <g fill="#fff">
                    <circle cx="130" cy="130" r="30"/>
                    <circle cx="230" cy="230" r="50"/>
                </g>
            </g>
        </mask>
    </defs>
    <g fill="#bfbfbf">
        <g mask="url(#mask)">
            <rect x="0" y="60" width="320" height="260"/>
            <polygon points="60,0 260,0 320,60 0,60"/>
        </g>
        <polygon points="160,0 170,0 172,10 148,10 146,25 174,25 177,40 143,40 140,60 160,60"/>
    </g>
</svg>