<?xml version="1.0" encoding="UTF-8"?>
<svg xmlns="http://www.w3.org/2000/svg" width="320" height="320" version="1.1">
    <defs>
        <mask id="mask">
            <rect width="320" height="280" x="0" y="20" fill="#fff"/>
            <polyline fill="none" stroke="#000" stroke-width="20" points="60,320 120,180 180,320"/>
            <path fill="#000" d="M 0,150 L 20,120 Q 40,80 60,120 Q 70,140 80,120 Q 100,80 120,120 Q 140,160 180,160 Q 190,160 200,140 Q 200,120 220,120 Q 280,130 270,150 Q 230,150 230,160 Q 230,200 180,200 H 140 Q 80,230 20,200 L 0,240"/>
        </mask>
    </defs>
    <rect width="320" height="300" x="0" y="20" fill="#bfbfbf" mask="url(#mask)" rx="20" ry="20"/>
</svg>
