<?xml version="1.0" encoding="UTF-8"?>
<svg xmlns="http://www.w3.org/2000/svg" width="320" height="320" version="1.1">
    <defs>
        <pattern id="pattern" width="40" height="40" patternUnits="userSpaceOnUse">
            <g fill="#bfbfbf">
                <rect width="20" height="20" x="20" y="0"/>
                <rect width="20" height="20" x="0" y="20"/>
            </g>
        </pattern>
        <mask id="mask">
            <rect width="320" height="320" x="0" y="0" fill="#fff"/>
            <polygon fill="#000" points="140,0 180,0 200,60 200,320 120,320 120,60"/>
        </mask>
    </defs>
    <g fill="#bfbfbf">
        <g mask="url(#mask)">
            <rect width="320" height="260" x="0" y="60"/>
            <polygon points="60,0 260,0 320,60 0,60"/>
        </g>
        <polygon points="160,0 170,0 172,10 148,10 146,25 174,25 177,40 143,40 140,60 160,60"/>
    </g>
    <rect width="40" height="260" x="140" y="60" fill="url(#pattern)"/>
</svg>
