<?xml version="1.0" encoding="UTF-8"?>
<svg xmlns="http://www.w3.org/2000/svg" width="320" height="320" version="1.1">
    <path fill="#BFBFBF" fill-rule="evenodd" d="M0,0 L320,0 L320,320 L0,320 L0,0 Z M123.939453,175.095703 L152.998047,175.095703 C158.932972,175.095703 163.468083,176.355456 166.603516,178.875 C170.578796,181.730483 172.622395,186.349577 172.734375,192.732422 C172.734375,198.051459 171.02671,202.530581 167.611328,206.169922 C164.139957,210.089212 158.932977,212.104817 151.990234,212.216797 L123.939453,212.216797 L123.939453,175.095703 Z M105.378906,281 L123.939453,281 L123.939453,228.677734 L147.623047,228.677734 L172.902344,281 L194.990234,281 L166.603516,226.662109 C182.168698,220.671194 190.06315,209.361411 190.287109,192.732422 C189.95117,181.422469 185.891966,172.716176 178.109375,166.613281 C171.670541,161.238254 163.356171,158.550781 153.166016,158.550781 L105.378906,158.550781 L105.378906,281 Z M210.275391,281 L288.464844,281 L288.464844,263.447266 L228.835937,263.447266 L228.835937,227.501953 L279.730469,227.501953 L279.730469,211.041016 L228.835937,211.041016 L228.835937,176.103516 L288.464844,176.103516 L288.464844,158.550781 L210.275391,158.550781 L210.275391,281 Z"/>
</svg>
