<?xml version="1.0" encoding="UTF-8"?>
<svg xmlns="http://www.w3.org/2000/svg" width="320" height="320" version="1.1">
    <defs>
        <mask id="mask">
            <rect width="320" height="320" x="0" y="0" fill="#fff"/>
            <polygon fill="#000" points="140,0 180,0 200,60 120,60"/>
            <g stroke="#000">
                <g fill="none" stroke-width="20" transform="scale(1.5 1)">
                    <circle cx="107" cy="180" r="80" clip-path="url(#clip-black)"/>
                    <circle cx="107" cy="180" r="80" stroke="#f00" clip-path="url(#clip-red)"/>
                </g>
                <circle cx="160" cy="180" r="10"/>
                <rect width="320" height="130" x="0" y="190" fill="#fff" stroke="none"/>
                <line x1="160" x2="300" y1="180" y2="190" stroke-width="10"/>
            </g>
            <text x="50" y="280" fill="#000" font-family="Arial" font-size="120" font-weight="bold">
                rpm
            </text>
        </mask>
    </defs>
    <g fill="#bfbfbf">
        <g mask="url(#mask)">
            <rect width="320" height="260" x="0" y="60"/>
            <polygon points="60,0 260,0 320,60 0,60"/>
        </g>
        <polygon points="160,0 170,0 172,10 148,10 146,25 174,25 177,40 143,40 140,60 160,60"/>
    </g>
</svg>
