<?xml version="1.0" encoding="UTF-8"?>
<svg 
    xmlns="http://www.w3.org/2000/svg" version="1.1" width="320" height="320">
    <defs>
        <mask id="mask">
            <rect x="0" y="0" width="320" height="320" fill="#fff"/>
            <text x="45" y="180" font-family="Trebuchet MS" font-size="200" font-weight="bold" fill="#000">TS</text>
            <path d="M 40,290 Q 50,290 60,260 Q 70,230 80,230 Q 90,230 100,260 Q 110,290 120,290 Q 130,290 140,260 Q 150,230 160,230 Q 170,230 180,260 Q 190,290 200,290 Q 210,290 220,260 Q 230,230 240,230 Q 250,230 260,260 Q 270,290 280,290" fill="none" stroke="#000" stroke-width="20"/>
        </mask>
    </defs>
    <rect x="0" y="0" width="320" height="320" fill="#bfbfbf" mask="url(#mask)"/>
</svg>