<?xml version="1.0" encoding="UTF-8"?>
<svg 
    xmlns="http://www.w3.org/2000/svg" version="1.1" width="320" height="320">
    <defs>
        <mask id="mask">
            <rect x="0" y="0" width="320" height="320" fill="#fff"/>
            <g fill="#000">
                <polygon points="140,0 180,0 200,60 120,60"/>
                <g transform="translate(64 94) scale(0.6)">
                    <polygon points="30,65 0,80 0,240 30,255"/>
                    <polygon points="30,65 320,280 240,320 0,80"/>
                    <polygon points="30,255 320,40 240,0 0,240"/>
                    <polygon points="240,0 320,40 320,280 240,320"/>
                </g>
            </g>
        </mask>
    </defs>
    <g fill="#bfbfbf">
        <g mask="url(#mask)">
            <rect x="0" y="60" width="320" height="260"/>
            <polygon points="60,0 260,0 320,60 0,60"/>
        </g>
        <polygon points="160,0 170,0 172,10 148,10 146,25 174,25 177,40 143,40 140,60 160,60"/>
    </g>
</svg>