<?xml version="1.0" encoding="UTF-8"?>
<svg 
    xmlns="http://www.w3.org/2000/svg" version="1.1" width="320" height="320">
    <path d="M 160,0 L 180,35 L 200,30 Q 230,100 170,160 Q 230,210 205,265 Q 230,260 250,250 Q 270,240 290,235 C 310,230 310,255 290,260 Q 270,265 250,280 Q 230,295 185,305 Q 180,320 100,320 C 80,320 70,300 90,290 L 80,280 L 70,300 Q 60,320 40,310 Q 20,300 30,290 Q 20,290 15,280 Q 0,250 30,220 Q 30,160 70,125 Q 50,90 70,65 Q 85,55 90,50 Q 110,30 135,35" fill="#bfbfbf"/>
</svg>