<?xml version="1.0" encoding="UTF-8"?>
<svg 
    xmlns="http://www.w3.org/2000/svg" 
    xmlns:xlink="http://www.w3.org/1999/xlink" version="1.1" width="320" height="320" viewbox="0 0 320 320">
    <defs>
        <path id="path" d="M 180,140 C 200,80 180,30 120,30 60,30 10,80 10,150 10,220 60,270 120,270 Q 160,270 180,220 200,230 215,215 240,225 250,210 270,215 280,200 310,200 310,170 310,140 180,140 Z"/>
        <mask id="mask">
            <use fill="#fff" xlink:href="#path"/>
        </mask>
    </defs>
    <rect x="80" y="230" width="100" height="90" rx="60" ry="30" fill="#543729" transform="rotate(-15 80 230)"/>
    <g mask="url(#mask)">
        <rect x="0" y="0" width="320" height="320" fill="#ef5734"/>
        <polygon points="320,60 0,320 320,320" fill="#2baf2b"/>
        <path d="M 0,320 H 220 L 170,200 Q 190,210 200,195 230,200 230,180 260,180 260,160 300,160 320,140 H 180 Q 140,210 80,190 50,210 0,180" fill="#ffcc2f"/>
    </g>
    <g stroke="#543729" stroke-width="5">
        <use fill="none" stroke-width="20" xlink:href="#path"/>
        <path d="M 210,120 Q 180,60 270,40 260,50 260,70 260,110 210,120 Z" fill="#00acee"/>
        <path d="M 180,80 Q 160,100 180,120 L 205,110 203,100 Q 220,100 240,110 220,80 180,80 Z" fill="#cecece"/>
    </g>
    <circle cx="120" cy="90" r="20" fill="#543729" stroke="#ffcc2f" stroke-width="10"/>
    <ellipse cx="120" cy="85" rx="8" ry="6" fill="#fff"/>
</svg>