<?xml version="1.0" encoding="UTF-8"?>
<svg 
    xmlns="http://www.w3.org/2000/svg" version="1.1" width="320" height="320" viewbox="0 0 320 320">
    <rect x="0" y="60" width="320" height="260" fill="#bf9f5f"/>
    <polygon points="60,0 260,0 320,60 0,60" fill="#dfbf7f"/>
    <polygon points="140,0 180,0 200,60 120,60" fill="#7f7f7f"/>
    <polygon points="150,0 170,0 180,60 140,60" fill="#3f3f3f"/>
    <polygon points="160,0 170,0 172,10 148,10 146,25 174,25 177,40 143,40 140,60 160,60" fill="#bfbfbf"/>
    <path d="M 160,300 Q 80,280 80,180 80,100 160,100 240,100 240,160 240,220 180,220 140,220 140,180 140,140 170,140" fill="none" stroke="#d70751" stroke-width="15" stroke-linecap="round"/>
</svg>