<?xml version="1.0" encoding="UTF-8"?>
<svg 
    xmlns="http://www.w3.org/2000/svg" version="1.1" width="320" height="320" viewbox="0 0 320 320">
    <defs>
        <mask id="mask">
            <rect x="0" y="0" width="320" height="320" fill="#fff"/>
            <g fill="none" stroke="#000" stroke-width="20" stroke-linecap="square">
                <path d="M 130,150 Q 110,150 110,170 V 190 Q 110,210 90,210 H 80 90 Q 110,210 110,230 V 250 Q 110,270 130,270"/>
                <path d="M 190,150 Q 210,150 210,170 V 190 Q 210,210 230,210 H 240 230 Q 210,210 210,230 V 250 Q 210,270 190,270"/>
            </g>
        </mask>
    </defs>
    <g fill="#ffbf3f">
        <polygon points="180,0 280,100 240,100 180,40"/>
        <rect x="40" y="0" width="140" height="100"/>
        <rect x="40" y="100" width="240" height="220" mask="url(#mask)"/>
    </g>
</svg>